<svg xmlns="http://www.w3.org/2000/svg" viewBox="0 0 300 50"><defs><style>.cls-1{fill:#153c6f;}.cls-14,.cls-17,.cls-2,.cls-5,.cls-8,.cls-9{fill:#fff;}.cls-12,.cls-15,.cls-16,.cls-18,.cls-19,.cls-2,.cls-3,.cls-6{stroke:#fff;}.cls-10,.cls-12,.cls-14,.cls-15,.cls-16,.cls-17,.cls-18,.cls-19,.cls-2,.cls-3,.cls-4,.cls-5,.cls-6,.cls-7,.cls-8{stroke-miterlimit:10;}.cls-10,.cls-12,.cls-2,.cls-3,.cls-4,.cls-5,.cls-6,.cls-7,.cls-8{stroke-width:0.44px;}.cls-11,.cls-15,.cls-18,.cls-3,.cls-7{fill:#ab0810;}.cls-4{fill:#f4f3f2;stroke:#f4f1ef;}.cls-5{stroke:#f0f0f7;}.cls-6{fill:#f4f4f9;}.cls-7{stroke:#ab0810;}.cls-8{stroke:#fcfcfc;}.cls-10,.cls-12,.cls-16,.cls-19{fill:none;}.cls-10{stroke:#f9f9f9;}.cls-13{fill:#fcfcfc;}.cls-14,.cls-17{stroke:#f4f4f4;}.cls-14,.cls-15,.cls-16{stroke-width:0.41px;}.cls-17,.cls-18,.cls-19{stroke-width:0.41px;}</style></defs><title>logo</title><g id="Слой_2" data-name="Слой 2"><g id="Слой_1-2" data-name="Слой 1"><rect class="cls-1" width="300" height="50"/><path class="cls-2" d="M7.58,11.66V37.9c2.05,0,3.61,0,4.11,0,.24,0,2.37,0,5.23,0l-.05-18.76H27.18V37.82h8.87V11.66Z"/><polygon class="cls-3" points="9.43 13.19 34.52 13.19 34.52 36.51 28.64 36.51 28.54 17.33 15.02 17.37 14.97 36.24 9.43 36.29 9.43 13.19"/><polygon class="cls-4" points="90.89 21.64 82.53 21.64 82.53 11.65 110.68 11.65 110.68 19.3 106.28 24.65 111.33 30.46 111.33 37.66 82.53 37.66 82.53 27.4 90.84 27.35 90.79 30.58 100.93 30.58 96.24 24.65 100.69 19.09 91.4 18.99 91.35 21.71 90.89 21.64"/><polygon class="cls-3" points="88.95 19.6 88.95 16.8 102.46 16.8 102.46 19.86 98.98 24.14 98.94 24.65 102.97 29.05 102.97 32.46 88.95 32.46 88.95 29.34 84.47 29.3 84.47 35.79 109.05 35.79 109.05 30.83 103.63 24.65 109.05 18.23 109.05 13.4 84.47 13.4 84.47 19.86 88.95 19.91 88.95 19.6"/><polygon class="cls-5" points="153.53 11.49 153.53 19.03 162.72 19.03 162.72 37.65 172.52 37.65 172.52 19.2 182 19.03 182 11.49 153.53 11.49"/><polygon class="cls-3" points="155.53 13.39 155.53 16.89 164.86 16.89 164.86 35.78 170.06 35.78 170.06 16.89 179.86 16.74 179.86 13.39 155.53 13.39"/><polygon class="cls-6" points="263.53 37.78 273.01 37.78 273.01 30.02 283.13 30.02 283.13 37.78 292 37.78 292 11.62 282.81 11.62 282.81 21.47 272.72 21.47 272.72 11.62 263.53 11.62 263.53 37.78"/><polygon class="cls-7" points="265.67 13.52 265.67 35.91 270.58 35.91 270.58 27.88 285.27 27.88 285.27 35.91 290.47 35.91 290.47 13.52 284.98 13.52 284.98 24.26 271.19 24.26 270.88 13.52 265.67 13.52"/><polygon class="cls-8" points="118.07 38.14 127.33 38.14 127.33 33.09 137.44 26.13 137.44 38.14 146.83 38.14 146.83 11.52 137.86 11.67 137.86 16.14 127.33 23.39 127.14 11.67 118.07 11.52 118.07 38.14"/><polygon class="cls-3" points="119.92 13.42 119.92 35.81 125.51 35.81 125.51 32.26 139.27 22.56 139.27 35.81 144.98 35.81 144.98 13.42 139.58 13.42 139.58 17.46 125.51 26.86 125.51 13.42 119.92 13.42"/><path class="cls-9" d="M208.45,11.76H188.71V37.91h9.14V31.28h10.6s8.65-1.54,8.6-9.73S208.45,11.76,208.45,11.76ZM205.58,24.2h-7.73V19h7.73s1.85-.12,2,2.43A2.6,2.6,0,0,1,205.58,24.2Z"/><path class="cls-10" d="M208.45,11.76H188.71V37.91h9.14V31.28h10.6s8.65-1.54,8.6-9.73S208.45,11.76,208.45,11.76ZM205.58,24.2h-7.73V19h7.73s1.85-.12,2,2.43A2.6,2.6,0,0,1,205.58,24.2Z"/><path class="cls-11" d="M208.45,13.65H190.56V36H196V29.33h12.47a7.5,7.5,0,0,0,6.68-7.58A8.42,8.42,0,0,0,208.45,13.65ZM205.58,24.2h-7.73V19h7.73s1.85-.12,2,2.43A2.6,2.6,0,0,1,205.58,24.2Z"/><path class="cls-12" d="M208.45,13.65H190.56V36H196V29.33h12.47a7.5,7.5,0,0,0,6.68-7.58A8.42,8.42,0,0,0,208.45,13.65ZM205.58,24.2h-7.73V19h7.73s1.85-.12,2,2.43A2.6,2.6,0,0,1,205.58,24.2Z"/><path class="cls-13" d="M205.51,17.22H196v9.05h9.53a4.42,4.42,0,0,0,3.84-4.67,4,4,0,0,0-3.68-4.36Zm0,7h-7.68V19h7.7s1.85-.12,2,2.43a2.55,2.55,0,0,1-2,2.77Z"/><path class="cls-12" d="M205.51,17.22H196v9.05h9.53a4.42,4.42,0,0,0,3.84-4.67,4,4,0,0,0-3.68-4.36Zm0,7h-7.68V19h7.7s1.85-.12,2,2.43a2.55,2.55,0,0,1-2,2.77Z"/><path class="cls-12" d="M205.58,19s1.85-.12,2,2.43a2.59,2.59,0,0,1-2,2.67h-7.73V19Z"/><path class="cls-14" d="M58.2,11.34c-8.54,0-15.44,6-15.44,13.47S49.57,38.28,58.2,38.28s15.45-6,15.45-13.47S66.67,11.34,58.2,11.34ZM58.36,31a6.32,6.32,0,1,1,6.29-6.33v0A6.28,6.28,0,0,1,58.36,31Z"/><path class="cls-15" d="M58.27,13.21c-7.47,0-13.51,5.17-13.51,11.56s6,11.58,13.51,11.58S71.9,31.17,71.9,24.77,65.72,13.21,58.27,13.21Zm0,17.76a6.32,6.32,0,1,1,6.31-6.32h0A6.32,6.32,0,0,1,58.36,31Z"/><path class="cls-9" d="M58.36,16.86a8,8,0,1,0,8.13,8,8,8,0,0,0-8.13-8Zm0,14.27a6.32,6.32,0,1,1,6.29-6.34v0A6.3,6.3,0,0,1,58.36,31Z"/><path class="cls-16" d="M58.36,16.86a8,8,0,1,0,8.13,8,8,8,0,0,0-8.13-8Zm0,14.27a6.32,6.32,0,1,1,6.29-6.34v0A6.3,6.3,0,0,1,58.36,31Z"/><circle class="cls-16" cx="58.36" cy="24.65" r="6.29"/><path class="cls-17" d="M239.3,11.19c-8.57,0-15.54,6-15.54,13.54s6.86,13.55,15.54,13.55,15.53-6.05,15.53-13.55S247.89,11.19,239.3,11.19ZM239.46,31a6.35,6.35,0,1,1,6.35-6.35v0A6.32,6.32,0,0,1,239.48,31Z"/><path class="cls-18" d="M239.37,13.06c-7.5,0-13.57,5.21-13.57,11.63s6.07,11.65,13.57,11.65S253,31.13,253,24.69,246.88,13.06,239.37,13.06Zm0,17.86a6.35,6.35,0,1,1,6.32-6.37v0a6.36,6.36,0,0,1-6.21,6.35Z"/><path class="cls-9" d="M239.48,16.74a8,8,0,1,0,8.16,8,8,8,0,0,0-8.16-8Zm0,14.34a6.35,6.35,0,1,1,6.35-6.35v0A6.33,6.33,0,0,1,239.46,31Z"/><path class="cls-19" d="M239.48,16.74a8,8,0,1,0,8.16,8,8,8,0,0,0-8.16-8Zm0,14.34a6.35,6.35,0,1,1,6.35-6.35v0A6.33,6.33,0,0,1,239.46,31Z"/><circle class="cls-19" cx="239.48" cy="24.57" r="6.33"/></g></g></svg>